<svg xmlns="http://www.w3.org/2000/svg" xmlns:xlink="http://www.w3.org/1999/xlink" width="1920" zoomAndPan="magnify" viewBox="0 0 1440 809.999993" height="1080" preserveAspectRatio="xMidYMid meet" version="1.0"><defs><g/></defs><rect x="-144" width="1728" fill="#ffffff" y="-80.999999" height="971.999992" fill-opacity="1"/><rect x="-144" width="1728" fill="#ffffff" y="-80.999999" height="971.999992" fill-opacity="1"/><g fill="#e02b36" fill-opacity="1"><g transform="translate(257.315998, 487.999084)"><g><path d="M 78.015625 -16.78125 C 71.859375 -11.050781 64.445312 -8.445312 55.78125 -8.96875 C 49.101562 -8.800781 41.734375 -11.488281 33.671875 -17.03125 C 25.097656 -22.925781 18.816406 -30.773438 14.828125 -40.578125 C 10.753906 -50.285156 8.066406 -60.078125 6.765625 -69.953125 C 5.898438 -76.890625 5.46875 -86.515625 5.46875 -98.828125 C 5.375 -111.140625 7.191406 -120.628906 10.921875 -127.296875 C 12.140625 -129.640625 13.960938 -131.03125 16.390625 -131.46875 C 20.546875 -132.15625 25.484375 -131.59375 31.203125 -129.78125 C 36.835938 -127.957031 40.695312 -126.003906 42.78125 -123.921875 C 43.738281 -123.140625 44.347656 -122.1875 44.609375 -121.0625 C 45.296875 -119.5 45.425781 -117.765625 45 -115.859375 C 44.5625 -113.953125 44.171875 -112.175781 43.828125 -110.53125 C 42.265625 -104.289062 41.523438 -97.703125 41.609375 -90.765625 C 41.609375 -83.742188 42.21875 -77.242188 43.4375 -71.265625 C 44.21875 -67.179688 45.382812 -63.710938 46.9375 -60.859375 C 51.53125 -53.222656 57.253906 -49.796875 64.109375 -50.578125 C 70.953125 -51.273438 75.804688 -56.957031 78.671875 -67.625 C 81.535156 -78.195312 81.882812 -91.414062 79.71875 -107.28125 C 79.457031 -109.363281 79.148438 -111.570312 78.796875 -113.90625 C 78.453125 -116.164062 78.320312 -118.378906 78.40625 -120.546875 C 78.925781 -124.617188 81.140625 -127.519531 85.046875 -129.25 C 88.859375 -130.988281 93.148438 -131.988281 97.921875 -132.25 C 102.679688 -132.507812 107.359375 -132.203125 111.953125 -131.328125 C 116.554688 -130.460938 119.722656 -129.425781 121.453125 -128.21875 C 124.660156 -126.050781 126.867188 -122.84375 128.078125 -118.59375 C 129.296875 -114.34375 130.125 -110.179688 130.5625 -106.109375 C 131.507812 -98.304688 131.722656 -88.421875 131.203125 -76.453125 C 130.597656 -64.410156 129.515625 -51.972656 127.953125 -39.140625 C 126.304688 -26.304688 124.921875 -18.675781 123.796875 -16.25 C 122.671875 -13.738281 120.847656 -10.578125 118.328125 -6.765625 C 116.160156 -3.640625 113.734375 -1.515625 111.046875 -0.390625 C 107.835938 0.992188 104.195312 1.816406 100.125 2.078125 C 96.050781 2.335938 92.410156 2.296875 89.203125 1.953125 C 84.609375 1.429688 81.140625 0.0859375 78.796875 -2.078125 C 76.367188 -4.242188 76.023438 -8.492188 77.765625 -14.828125 Z M 78.015625 -16.78125 "/></g></g></g><g fill="#6c3b46" fill-opacity="1"><g transform="translate(80.568657, 499.698409)"><g><path d="M 114.953125 -48.890625 C 108.453125 -46.546875 99.476562 -44.550781 88.03125 -42.90625 C 76.5 -41.257812 66.832031 -40.65625 59.03125 -41.09375 C 57.039062 -31.644531 55.523438 -23.101562 54.484375 -15.46875 C 53.359375 -8.101562 50.84375 -3.769531 46.9375 -2.46875 C 42.957031 -1.164062 38.0625 -1.035156 32.25 -2.078125 C 28.257812 -2.773438 23.878906 -4.035156 19.109375 -5.859375 C 14.253906 -7.585938 10.222656 -9.753906 7.015625 -12.359375 C 4.328125 -14.609375 2.507812 -17.726562 1.5625 -21.71875 C 0.78125 -24.75 0.347656 -27.957031 0.265625 -31.34375 C 0.0859375 -34.632812 0.0859375 -37.84375 0.265625 -40.96875 C 0.691406 -49.539062 2.425781 -60.460938 5.46875 -73.734375 C 8.5 -86.992188 12.269531 -100.601562 16.78125 -114.5625 C 21.195312 -128.519531 26.09375 -141.910156 31.46875 -154.734375 C 36.757812 -167.566406 41.914062 -177.882812 46.9375 -185.6875 C 49.457031 -189.675781 52.535156 -193.707031 56.171875 -197.78125 C 59.816406 -201.769531 64.109375 -204.285156 69.046875 -205.328125 C 73.984375 -206.367188 80.53125 -206.238281 88.6875 -204.9375 C 96.832031 -203.632812 102.941406 -201.289062 107.015625 -197.90625 C 114.128906 -194.09375 121.539062 -185.515625 129.25 -172.171875 C 136.882812 -158.816406 143.953125 -144.117188 150.453125 -128.078125 C 156.953125 -111.953125 162.539062 -96.21875 167.21875 -80.875 C 171.820312 -65.53125 174.640625 -54.046875 175.671875 -46.421875 C 176.710938 -38.796875 176.890625 -32.378906 176.203125 -27.171875 C 175.421875 -22.835938 173.816406 -19.585938 171.390625 -17.421875 C 168.347656 -14.472656 164.53125 -11.914062 159.9375 -9.75 C 155.34375 -7.582031 151.097656 -5.976562 147.203125 -4.9375 C 141.484375 -3.375 136.582031 -3.113281 132.5 -4.15625 C 128.425781 -5.113281 125.609375 -9.191406 124.046875 -16.390625 C 121.710938 -26.003906 118.679688 -36.835938 114.953125 -48.890625 Z M 65.28125 -66.453125 C 78.539062 -66.273438 92.410156 -67.921875 106.890625 -71.390625 C 100.210938 -88.898438 92.671875 -105.585938 84.265625 -121.453125 C 77.066406 -104.546875 70.738281 -86.210938 65.28125 -66.453125 Z M 65.28125 -66.453125 "/></g></g></g><g fill="#0987c7" fill-opacity="1"><g transform="translate(412.896338, 530.721909)"><g><path d="M 20.078125 -137.109375 C 19.960938 -138.128906 19.882812 -139.207031 19.84375 -140.34375 C 19.195312 -150.3125 19.171875 -157.910156 19.765625 -163.140625 C 20.390625 -168.253906 21.691406 -172.769531 23.671875 -176.6875 C 25.347656 -180.113281 27.582031 -182.597656 30.375 -184.140625 C 33.664062 -185.835938 36.976562 -187.015625 40.3125 -187.671875 C 43.632812 -188.242188 47.210938 -188.582031 51.046875 -188.6875 C 56.535156 -188.8125 60.945312 -188.023438 64.28125 -186.328125 C 67.644531 -184.535156 69.226562 -180.394531 69.03125 -173.90625 C 69.957031 -161.613281 70.632812 -151.441406 71.0625 -143.390625 C 72.875 -143.515625 74.695312 -143.597656 76.53125 -143.640625 C 81.394531 -143.859375 86.351562 -143.703125 91.40625 -143.171875 C 93.75 -142.398438 96.503906 -141.195312 99.671875 -139.5625 C 101.992188 -138.4375 103.863281 -136.296875 105.28125 -133.140625 C 107.625 -128.015625 108.195312 -123.15625 107 -118.5625 C 105.707031 -113.945312 102.273438 -110.835938 96.703125 -109.234375 C 91.140625 -107.523438 84.066406 -106.425781 75.484375 -105.9375 L 75.578125 -105.171875 C 76.460938 -82.222656 78.878906 -67.269531 82.828125 -60.3125 C 86.804688 -53.28125 92.628906 -48.335938 100.296875 -45.484375 C 107.960938 -42.640625 111.210938 -36.566406 110.046875 -27.265625 C 108.878906 -17.867188 102.910156 -11.84375 92.140625 -9.1875 C 81.285156 -6.414062 70.34375 -8.523438 59.3125 -15.515625 C 48.28125 -22.503906 40.234375 -33.378906 35.171875 -48.140625 C 30.023438 -62.898438 26.28125 -79.4375 23.9375 -97.75 L 23.515625 -101.234375 C 17.953125 -100.316406 12.453125 -99.625 7.015625 -99.15625 C 5.328125 -98.695312 4.175781 -98.429688 3.5625 -98.359375 C 2.539062 -98.242188 1.582031 -98.265625 0.6875 -98.421875 C -0.289062 -98.648438 -1.078125 -99.078125 -1.671875 -99.703125 C -2.441406 -100.222656 -3.164062 -101.097656 -3.84375 -102.328125 C -5.539062 -107.203125 -6.453125 -111.285156 -6.578125 -114.578125 C -6.785156 -117.785156 -6.691406 -120.632812 -6.296875 -123.125 C -5.910156 -125.875 -3.832031 -128.257812 -0.0625 -130.28125 C 2.082031 -131.394531 4.660156 -132.53125 7.671875 -133.6875 C 9.515625 -134.25 12.335938 -135.054688 16.140625 -136.109375 C 16.984375 -136.390625 18.296875 -136.722656 20.078125 -137.109375 Z M 20.078125 -137.109375 "/></g></g></g><g fill="#f88bad" fill-opacity="1"><g transform="translate(511.118525, 487.999084)"><g><path d="M 10.65625 -75.6875 C 15.945312 -85.914062 21.710938 -94.019531 27.953125 -100 C 30.472656 -102.34375 32.078125 -103.816406 32.765625 -104.421875 C 42.734375 -113.171875 54.046875 -119.195312 66.703125 -122.5 C 77.453125 -125.351562 87.898438 -125.394531 98.046875 -122.625 C 102.816406 -121.238281 107.582031 -118.722656 112.34375 -115.078125 C 117.113281 -111.347656 120.710938 -107.273438 123.140625 -102.859375 C 125.742188 -97.828125 127.390625 -91.5 128.078125 -83.875 C 129.035156 -72.601562 128 -62.457031 124.96875 -53.4375 C 123.144531 -47.976562 120.457031 -42.691406 116.90625 -37.578125 C 113.351562 -32.378906 109.664062 -27.742188 105.84375 -23.671875 C 100.125 -17.597656 93.625 -12.4375 86.34375 -8.1875 C 79.0625 -3.945312 71.21875 -1.4375 62.8125 -0.65625 C 54.050781 -0.0390625 45.8125 -1.035156 38.09375 -3.640625 C 31.945312 -5.722656 26.316406 -8.628906 21.203125 -12.359375 C 15.992188 -15.992188 12.003906 -20.71875 9.234375 -26.53125 C 6.367188 -32.164062 4.804688 -38.707031 4.546875 -46.15625 C 4.117188 -56.820312 6.15625 -66.664062 10.65625 -75.6875 Z M 44.46875 -57.609375 C 44.46875 -52.140625 47.585938 -46.460938 53.828125 -40.578125 C 60.078125 -34.679688 66.40625 -33.289062 72.8125 -36.40625 C 76.894531 -38.40625 79.410156 -41.222656 80.359375 -44.859375 C 81.222656 -48.410156 81.050781 -52.140625 79.84375 -56.046875 C 77.070312 -64.890625 70.484375 -70.222656 60.078125 -72.046875 C 49.671875 -73.859375 44.46875 -69.046875 44.46875 -57.609375 Z M 44.46875 -57.609375 "/></g></g></g><g fill="#0987c7" fill-opacity="1"><g transform="translate(636.685477, 472.466025)"><g><path d="M 139.390625 -36.46875 C 139.054688 -30.007812 137.550781 -21.035156 134.875 -9.546875 C 132.09375 2.023438 129.820312 10.160156 128.0625 14.859375 C 126.195312 19.617188 124.070312 22 121.6875 22 C 117.46875 21.914062 112.671875 20.445312 107.296875 17.59375 C 101.929688 14.726562 98.375 12.070312 96.625 9.625 C 95.832031 8.675781 95.367188 7.617188 95.234375 6.453125 C 94.828125 4.796875 94.929688 3.050781 95.546875 1.21875 C 96.160156 -0.601562 97.644531 -6.847656 100 -17.515625 C 102.269531 -28.203125 103.226562 -36.617188 102.875 -42.765625 C 102.601562 -46.972656 101.875 -50.640625 100.6875 -53.765625 C 97.070312 -62.203125 91.878906 -66.703125 85.109375 -67.265625 C 78.222656 -67.765625 72.007812 -61.914062 66.46875 -49.71875 C 63.675781 -41.875 62.351562 -29.867188 62.5 -13.703125 C 62.539062 -11.566406 62.613281 -9.347656 62.71875 -7.046875 C 62.695312 -4.660156 62.488281 -2.398438 62.09375 -0.265625 C 61.09375 3.679688 58.597656 6.164062 54.609375 7.1875 C 50.546875 8.1875 46.144531 8.375 41.40625 7.75 C 36.675781 7.132812 32.132812 5.976562 27.78125 4.28125 C 23.425781 2.582031 20.460938 0.96875 18.890625 -0.5625 C 15.960938 -3.3125 14.210938 -6.90625 13.640625 -11.34375 C 12.972656 -15.789062 12.671875 -20.078125 12.734375 -24.203125 C 12.804688 -32.128906 13.914062 -42.023438 16.0625 -53.890625 C 18.082031 -65.671875 19.957031 -75.015625 21.6875 -81.921875 C 23.332031 -88.765625 25.628906 -95.832031 28.578125 -103.125 C 31.523438 -110.425781 34.613281 -115.625 37.84375 -118.71875 C 40.375 -121.414062 43.023438 -123.082031 45.796875 -123.71875 C 49.128906 -124.5 52.816406 -124.644531 56.859375 -124.15625 C 60.828125 -123.675781 64.359375 -122.972656 67.453125 -122.046875 C 71.941406 -120.671875 75.222656 -118.6875 77.296875 -116.09375 C 79.285156 -113.519531 79.019531 -109.242188 76.5 -103.265625 L 76.5 -102.625 C 82.914062 -107.59375 89.679688 -109.097656 96.796875 -107.140625 C 104.585938 -105.953125 112.117188 -101.859375 119.390625 -94.859375 C 124.523438 -89.835938 127.726562 -86.015625 129 -83.390625 C 133.425781 -88.210938 139.09375 -91.867188 146 -94.359375 C 152.894531 -96.773438 160.078125 -97.238281 167.546875 -95.75 C 175.085938 -94.082031 182.484375 -89.742188 189.734375 -82.734375 C 197.328125 -75.304688 202.488281 -66.398438 205.21875 -56.015625 C 207.9375 -45.546875 209.28125 -35.285156 209.25 -25.234375 C 209.257812 -18.171875 208.515625 -8.519531 207.015625 3.71875 C 205.429688 15.945312 202.40625 25.035156 197.9375 30.984375 C 196.394531 33.085938 194.394531 34.125 191.9375 34.09375 C 187.789062 34.03125 183.03125 32.566406 177.65625 29.703125 C 172.28125 26.847656 168.722656 24.195312 166.984375 21.75 C 166.191406 20.8125 165.726562 19.753906 165.59375 18.578125 C 165.113281 16.898438 165.21875 15.15625 165.90625 13.34375 C 166.507812 11.519531 167.140625 9.832031 167.796875 8.28125 C 170.140625 2.363281 171.742188 -4.082031 172.609375 -11.0625 C 173.359375 -17.96875 173.566406 -24.5 173.234375 -30.65625 C 172.878906 -34.863281 172.148438 -38.53125 171.046875 -41.65625 C 167.429688 -50.09375 162.191406 -54.597656 155.328125 -55.171875 C 149.859375 -56.109375 145.910156 -54.820312 143.484375 -51.3125 C 141.078125 -47.789062 139.710938 -42.84375 139.390625 -36.46875 Z M 139.390625 -36.46875 "/></g></g></g><g fill="#f88bad" fill-opacity="1"><g transform="translate(852.556647, 498.329709)"><g><path d="M 120.984375 -31.109375 C 114.210938 -29.753906 105.039062 -29.125 93.46875 -29.21875 C 81.820312 -29.320312 72.171875 -30.171875 64.515625 -31.765625 C 61.128906 -22.722656 58.351562 -14.507812 56.1875 -7.125 C 53.96875 -0.0078125 50.832031 3.898438 46.78125 4.609375 C 42.644531 5.285156 37.785156 4.679688 32.203125 2.796875 C 28.359375 1.492188 24.210938 -0.414062 19.765625 -2.9375 C 15.222656 -5.363281 11.566406 -8.109375 8.796875 -11.171875 C 6.472656 -13.796875 5.140625 -17.148438 4.796875 -21.234375 C 4.484375 -24.347656 4.539062 -27.582031 4.96875 -30.9375 C 5.28125 -34.226562 5.757812 -37.398438 6.40625 -40.453125 C 8.113281 -48.867188 11.46875 -59.414062 16.46875 -72.09375 C 21.457031 -84.738281 27.226562 -97.625 33.78125 -110.75 C 40.238281 -123.882812 47.082031 -136.390625 54.3125 -148.265625 C 61.46875 -160.160156 68.113281 -169.582031 74.25 -176.53125 C 77.34375 -180.101562 80.988281 -183.632812 85.1875 -187.125 C 89.394531 -190.507812 94.019531 -192.347656 99.0625 -192.640625 C 104.101562 -192.929688 110.554688 -191.828125 118.421875 -189.328125 C 126.273438 -186.804688 131.960938 -183.570312 135.484375 -179.625 C 141.953125 -174.78125 147.992188 -165.179688 153.609375 -150.828125 C 159.148438 -136.484375 163.929688 -120.894531 167.953125 -104.0625 C 171.960938 -87.144531 175.128906 -70.75 177.453125 -54.875 C 179.703125 -39.019531 180.769531 -27.242188 180.65625 -19.546875 C 180.539062 -11.859375 179.75 -5.488281 178.28125 -0.4375 C 176.851562 3.726562 174.78125 6.703125 172.0625 8.484375 C 168.613281 10.929688 164.457031 12.882812 159.59375 14.34375 C 154.71875 15.800781 150.273438 16.753906 146.265625 17.203125 C 140.390625 17.890625 135.507812 17.410156 131.625 15.765625 C 127.738281 14.203125 125.5625 9.75 125.09375 2.40625 C 124.238281 -7.457031 122.867188 -18.628906 120.984375 -31.109375 Z M 74.515625 -55.90625 C 87.585938 -53.738281 101.546875 -53.285156 116.390625 -54.546875 C 112.410156 -72.859375 107.457031 -90.488281 101.53125 -107.4375 C 91.875 -91.800781 82.867188 -74.625 74.515625 -55.90625 Z M 74.515625 -55.90625 "/></g></g></g><g fill="#6c3b46" fill-opacity="1"><g transform="translate(1054.355349, 524.196316)"><g><path d="M 59.265625 -65.65625 C 63.640625 -66.84375 67.71875 -69.382812 71.5 -73.28125 C 75.300781 -77.101562 77.644531 -81.601562 78.53125 -86.78125 C 79.15625 -91.414062 78.6875 -95.679688 77.125 -99.578125 C 75.59375 -103.398438 72.398438 -106.128906 67.546875 -107.765625 C 59.878906 -110.273438 53.09375 -107.691406 47.1875 -100.015625 C 41.28125 -92.347656 38.769531 -85.425781 39.65625 -79.25 C 40.5625 -72.894531 42.976562 -68.75 46.90625 -66.8125 C 50.757812 -64.78125 54.878906 -64.394531 59.265625 -65.65625 Z M 92.828125 -32.390625 C 87.359375 -26.703125 77.171875 -23.671875 62.265625 -23.296875 C 47.359375 -22.941406 35.019531 -26.414062 25.25 -33.71875 C 15.46875 -41 8.617188 -48.976562 4.703125 -57.65625 C 0.785156 -66.3125 -1.660156 -75.4375 -2.640625 -85.03125 C -3.710938 -94.5 -3.253906 -102.375 -1.265625 -108.65625 C 0.617188 -114.9375 3.925781 -120.398438 8.65625 -125.046875 C 13.3125 -129.660156 18.585938 -133.492188 24.484375 -136.546875 C 32.085938 -140.503906 40.3125 -142.796875 49.15625 -143.421875 C 57.832031 -143.847656 66.1875 -142.4375 74.21875 -139.1875 C 77.8125 -137.738281 81.257812 -136.097656 84.5625 -134.265625 C 84.957031 -136.578125 85.515625 -139.003906 86.234375 -141.546875 C 87.359375 -145.023438 89.265625 -147.851562 91.953125 -150.03125 C 93.460938 -151.1875 96.144531 -152.410156 100 -153.703125 C 103.863281 -154.898438 107.863281 -155.726562 112 -156.1875 C 116.050781 -156.625 119.75 -156.40625 123.09375 -155.53125 C 126.363281 -154.632812 128.160156 -152.59375 128.484375 -149.40625 C 128.710938 -147.6875 128.679688 -145.929688 128.390625 -144.140625 C 128.015625 -142.253906 127.722656 -140.46875 127.515625 -138.78125 C 124.992188 -122.457031 124.882812 -104.128906 127.1875 -83.796875 C 129.226562 -65.347656 131.347656 -49.410156 133.546875 -35.984375 C 135.722656 -22.453125 134.515625 -10.492188 129.921875 -0.109375 C 125.347656 10.367188 120.203125 17.46875 114.484375 21.1875 C 108.773438 24.976562 102.785156 27.976562 96.515625 30.1875 C 88.566406 33.0625 80.304688 34.796875 71.734375 35.390625 C 65.335938 35.878906 58.90625 35.796875 52.4375 35.140625 C 45.882812 34.515625 39.421875 32.5625 33.046875 29.28125 C 30.703125 28.09375 28.378906 26.6875 26.078125 25.0625 C 22.710938 22.707031 18.179688 18.140625 12.484375 11.359375 C 6.710938 4.585938 6.304688 -0.253906 11.265625 -3.171875 C 27.703125 -11.859375 38.65625 -13.019531 44.125 -6.65625 C 49.488281 -0.269531 55.5625 3.441406 62.34375 4.484375 C 69.039062 5.535156 75.929688 4.378906 83.015625 1.015625 C 90.003906 -2.335938 93.519531 -8.566406 93.5625 -17.671875 C 93.507812 -26.753906 93.265625 -31.660156 92.828125 -32.390625 Z M 92.828125 -32.390625 "/></g></g></g><g fill="#9fd9fe" fill-opacity="1"><g transform="translate(1231.154836, 523.612656)"><g><path d="M -13.4375 -129.796875 C -11.28125 -130.828125 -8.90625 -131.6875 -6.3125 -132.375 C -5.144531 -132.6875 -4.007812 -132.945312 -2.90625 -133.15625 C 2.40625 -134.125 6.238281 -134.75 8.59375 -135.03125 C 11.9375 -135.28125 14.632812 -135.414062 16.6875 -135.4375 C 17.132812 -135.445312 17.785156 -135.351562 18.640625 -135.15625 C 19.046875 -134.988281 19.625 -134.691406 20.375 -134.265625 L 22.265625 -133.28125 C 22.578125 -133.101562 23.160156 -132.722656 24.015625 -132.140625 C 24.390625 -131.785156 24.816406 -131.222656 25.296875 -130.453125 L 26.84375 -127.640625 C 27.019531 -126.972656 27.457031 -126.015625 28.15625 -124.765625 C 28.332031 -124.453125 28.523438 -123.925781 28.734375 -123.1875 C 30.148438 -116.820312 31.832031 -107.484375 33.78125 -95.171875 C 34.695312 -89.410156 36 -83.382812 37.6875 -77.09375 C 41.582031 -62.800781 46.875 -48.019531 53.5625 -32.75 C 54.09375 -30.113281 54.382812 -27.503906 54.4375 -24.921875 C 54.507812 -22.328125 54.375 -20.5 54.03125 -19.4375 C 53.425781 -17.65625 51.535156 -15.984375 48.359375 -14.421875 C 46.953125 -13.671875 45.328125 -13.050781 43.484375 -12.5625 C 41.660156 -11.988281 39.773438 -11.484375 37.828125 -11.046875 C 34.367188 -10.222656 30.546875 -9.601562 26.359375 -9.1875 C 23.222656 -8.8125 20.476562 -8.664062 18.125 -8.75 L 16.40625 -9.09375 C 16.03125 -9.175781 15.375 -9.453125 14.4375 -9.921875 C 14.039062 -10.066406 13.457031 -10.398438 12.6875 -10.921875 C 12.707031 -10.835938 12.15625 -11.234375 11.03125 -12.109375 C 10.625 -12.265625 10.164062 -12.816406 9.65625 -13.765625 C 9.09375 -14.503906 8.570312 -15.4375 8.09375 -16.5625 C 7.375 -18.25 2.46875 -32.234375 -6.625 -58.515625 C -8.21875 -63.117188 -9.609375 -67.644531 -10.796875 -72.09375 L -10.96875 -72.703125 L -11.140625 -73.34375 L -11.296875 -73.953125 C -11.347656 -74.128906 -11.40625 -74.34375 -11.46875 -74.59375 C -16.726562 -94.28125 -17.382812 -112.679688 -13.4375 -129.796875 Z M 6.078125 -184.140625 C 11.648438 -181.140625 15.226562 -176.664062 16.8125 -170.71875 C 18.382812 -164.851562 17.503906 -159.234375 14.171875 -153.859375 C 10.859375 -148.484375 6.0625 -144.957031 -0.21875 -143.28125 C -6.414062 -141.625 -12.296875 -142.296875 -17.859375 -145.296875 C -23.410156 -148.296875 -26.972656 -152.726562 -28.546875 -158.59375 C -30.128906 -164.539062 -29.265625 -170.203125 -25.953125 -175.578125 C -22.609375 -180.867188 -17.835938 -184.34375 -11.640625 -186 C -5.359375 -187.675781 0.546875 -187.054688 6.078125 -184.140625 Z M 6.078125 -184.140625 "/></g></g></g><g fill="#e02b36" fill-opacity="1"><g transform="translate(1284.513683, 499.998691)"><g><path d="M 96.859375 -151.703125 C 102.867188 -151.171875 107.773438 -150.101562 111.578125 -148.5 C 115.921875 -146.625 118.3125 -144.007812 118.75 -140.65625 C 119.257812 -136.789062 119.429688 -132.878906 119.265625 -128.921875 C 119.066406 -124.960938 118.207031 -121.132812 116.6875 -117.4375 C 114.488281 -112.164062 112.0625 -109.359375 109.40625 -109.015625 C 107 -108.703125 104.617188 -108.78125 102.265625 -109.25 C 99.859375 -109.71875 97.484375 -110.191406 95.140625 -110.671875 C 90.296875 -111.617188 83.9375 -111.441406 76.0625 -110.140625 C 68.113281 -108.753906 60.863281 -106.054688 54.3125 -102.046875 C 47.664062 -98.046875 42.878906 -92.570312 39.953125 -85.625 C 37.023438 -78.59375 38.195312 -69.910156 43.46875 -59.578125 C 47.257812 -51.953125 53.6875 -46.984375 62.75 -44.671875 C 71.707031 -42.253906 80.5625 -42.0625 89.3125 -44.09375 C 96.007812 -45.664062 102.800781 -49.175781 109.6875 -54.625 C 116.582031 -60.082031 124.269531 -59.472656 132.75 -52.796875 C 137.632812 -48.890625 138.132812 -44.453125 134.25 -39.484375 C 130.363281 -34.421875 126.890625 -30.507812 123.828125 -27.75 C 121.722656 -25.8125 119.59375 -24.09375 117.4375 -22.59375 C 111.582031 -18.5 105.507812 -15.78125 99.21875 -14.4375 C 92.945312 -13 86.628906 -12.171875 80.265625 -11.953125 C 71.828125 -11.628906 63.546875 -12.46875 55.421875 -14.46875 C 48.992188 -16.070312 42.773438 -18.492188 36.765625 -21.734375 C 30.660156 -24.867188 25.09375 -28.988281 20.0625 -34.09375 C 10.789062 -43.46875 3.984375 -54.378906 -0.359375 -66.828125 C -7.148438 -86.046875 -4.414062 -103.191406 7.84375 -118.265625 C 13.9375 -125.878906 21.191406 -131.945312 29.609375 -136.46875 C 38.023438 -140.96875 46.269531 -144.40625 54.34375 -146.78125 C 61.164062 -148.8125 68.1875 -150.296875 75.40625 -151.234375 C 82.539062 -152.171875 89.691406 -152.328125 96.859375 -151.703125 Z M 96.859375 -151.703125 "/></g></g></g></svg>